<svg height="1000" width="834" xmlns="http://www.w3.org/2000/svg"><path d="M103.75 708.5q43.75 0 74.375 30.625t30.625 73.125-30.625 73.125T103.75 916 30 885.375 0 812.25t30-73.125 73.75-30.625zm0-625q197.5 0 365.625 97.5t266.25 265.625T833.75 812.25q0 42.5-30.625 73.125T728.75 916 655 885.375t-30-73.125q0-215-152.5-368.125T103.75 291Q60 291 30 260.375T0 187.25t30-73.125T103.75 83.5zm0 312.5q172.5 0 295 121.875t122.5 294.375q0 42.5-30.625 73.125T416.25 916t-73.75-30.625-30-73.125q0-86.25-61.25-147.5t-147.5-61.25Q60 603.5 30 572.875T0 499.75t30-73.125T103.75 396z"/></svg>