<svg width="100" height="220" viewBox="0 0 100 220" xmlns="http://www.w3.org/2000/svg"><style type="text/css">.spice{ fill: #942711; }</style><defs><linearGradient id="light" gradientUnits="userSpaceOnUse" x2="100"><stop offset="0" stop-color="#a51002" stop-opacity="0"/><stop offset=".4" stop-color="#d5300f" stop-opacity=".2"/><stop offset=".6" stop-color="#d5300f" stop-opacity=".35"/><stop offset="1" stop-color="#d5300f" stop-opacity="0"/></linearGradient><path id="wave" d="M20 105c20-10 40-10 60 0"/><path id="lowerWave" d="M20 180c20 10 40 10 60 0"/></defs><path d="M35 10c5 50-25 60-25 90v100c0 20 80 20 80 0V100c0-30-30-40-25-90" class="spice"/><path d="M35 10c5 50-25 60-25 90v100c0 20 80 20 80 0V100c0-30-30-40-25-90" fill="url(#light)"/><path fill="#fed" d="M31 110c10 15-20 53 20 55 20 0 20-15 10-40 10 25-5 30-10 30-25 0-10-35-20-45"/><path fill="#241005" d="M36 110c10 10-5 40 15 40 10 0 10-10 6-20-5-10-12-15-20-20"/><ellipse cx="50" cy="10" rx="15" ry="3" class="spice"/><ellipse cx="50" cy="10" rx="12" ry="2" fill="rgba(0,0,0,0.2)"/></svg>